<?xml version="1.0" encoding="UTF-8"?>
<svg width="24px" height="25px" viewBox="0 0 24 25" version="1.1" xmlns="http://www.w3.org/2000/svg" xmlns:xlink="http://www.w3.org/1999/xlink">
    <!-- Generator: Sketch 47.1 (45422) - http://www.bohemiancoding.com/sketch -->
    <title>FaceBook-2</title>
    <desc>Created with Sketch.</desc>
    <defs></defs>
    <g id="Page-1" stroke="none" stroke-width="1" fill="none" fill-rule="evenodd">
        <g id="繁体中文" transform="translate(-1144.000000, -3563.000000)" fill="#044A84">
            <path d="M1155.99706,3563.037 C1149.36694,3563.037 1144,3568.40406 1144,3575.03406 C1144,3581.66406 1149.36706,3587.03125 1155.99706,3587.03125 C1162.62731,3587.03125 1167.99425,3581.66406 1167.99425,3575.03406 C1167.99425,3568.40394 1162.62706,3563.037 1155.99706,3563.037 Z M1159.21669,3574.97122 L1157.13391,3574.97122 L1157.13391,3582.485 L1154.03991,3582.485 L1154.03991,3574.97122 L1152.46106,3574.97122 L1152.46106,3572.38272 L1154.03991,3572.38272 L1154.03991,3570.80397 C1154.03991,3568.72122 1154.92394,3567.45791 1157.38587,3567.45791 L1159.46875,3567.45791 L1159.46875,3570.04641 L1158.20556,3570.04641 C1157.25891,3570.04641 1157.19581,3570.42556 1157.19581,3571.05603 L1157.19581,3572.31922 L1159.5315,3572.31922 L1159.21594,3574.97122 L1159.21669,3574.97122 Z" id="FaceBook-2"></path>
        </g>
    </g>
</svg>