<?xml version="1.0" encoding="UTF-8"?>
<svg width="24px" height="24px" viewBox="0 0 24 24" version="1.1" xmlns="http://www.w3.org/2000/svg" xmlns:xlink="http://www.w3.org/1999/xlink">
    <!-- Generator: Sketch 47.1 (45422) - http://www.bohemiancoding.com/sketch -->
    <title>instagram</title>
    <desc>Created with Sketch.</desc>
    <defs></defs>
    <g id="Page-1" stroke="none" stroke-width="1" fill="none" fill-rule="evenodd">
        <g id="繁体中文" transform="translate(-996.000000, -3607.000000)" fill="#044A84">
            <path d="M1007.92706,3622.81597 C1005.9854,3622.81597 1004.41373,3621.24701 1004.41373,3619.30539 C1004.41373,3617.36373 1005.9854,3615.79205 1007.92706,3615.79205 C1009.86597,3615.79205 1011.44052,3617.36098 1011.44052,3619.30263 C1011.44052,3621.24429 1009.86597,3622.81597 1007.92706,3622.81597 Z M1011.94402,3616.64048 C1011.28021,3616.64048 1010.74218,3616.10244 1010.74218,3615.43875 C1010.74218,3614.77506 1011.28021,3614.23705 1011.94402,3614.23705 C1012.60771,3614.23705 1013.14563,3614.77506 1013.14563,3615.43875 C1013.14563,3616.10244 1012.60771,3616.64048 1011.94402,3616.64048 Z M1007.92706,3616.72108 C1006.50275,3616.72108 1005.34276,3617.88116 1005.34276,3619.30539 C1005.34276,3620.7297 1006.50275,3621.88966 1007.92706,3621.88966 C1009.35138,3621.88966 1010.51125,3620.7297 1010.51125,3619.30539 C1010.51125,3617.88116 1009.35138,3616.72108 1007.92706,3616.72108 Z M1007.98835,3607 C1001.36731,3607 996,3612.36731 996,3618.98835 C996,3625.60925 1001.36731,3630.97656 1007.98835,3630.97656 C1014.60925,3630.97656 1019.97656,3625.60925 1019.97656,3618.98835 C1019.97656,3612.36731 1014.60925,3607 1007.98835,3607 Z M1014.88709,3621.91471 C1014.88709,3624.08171 1013.1151,3625.85657 1010.94524,3625.85657 L1005.0312,3625.85657 C1002.8642,3625.85657 1001.08949,3624.08458 1001.08949,3621.91471 L1001.08949,3616.06184 C1001.08949,3613.89485 1002.86148,3612.12011 1005.0312,3612.12011 L1010.94524,3612.12011 C1013.11223,3612.12011 1014.88709,3613.89485 1014.88709,3616.0646 L1014.88709,3621.91471 Z" id="instagram"></path>
        </g>
    </g>
</svg>