<?xml version="1.0" encoding="UTF-8"?>
<svg width="24px" height="24px" viewBox="0 0 24 24" version="1.1" xmlns="http://www.w3.org/2000/svg" xmlns:xlink="http://www.w3.org/1999/xlink">
    <!-- Generator: Sketch 47.1 (45422) - http://www.bohemiancoding.com/sketch -->
    <title>slack</title>
    <desc>Created with Sketch.</desc>
    <defs></defs>
    <g id="Page-1" stroke="none" stroke-width="1" fill="none" fill-rule="evenodd">
        <g id="繁体中文" transform="translate(-1046.000000, -3607.000000)" fill="#044A84">
            <g id="slack" transform="translate(1046.000000, 3607.000000)">
                <g id="Group-3">
                    <path d="M11.9883512,0.0234146341 C5.39473171,0.0234146341 0,5.41814634 0,12.0117659 C0,18.605239 5.39473171,23.9999707 11.9883512,23.9999707 C18.5818244,23.9999707 23.9765561,18.605239 23.9765561,12.0117659 C23.9765561,5.41814634 18.5818244,0.0234146341 11.9883512,0.0234146341 Z M18.8066049,13.9598049 L17.2332,14.4842341 L17.7576293,16.0577561 C17.9823805,16.7320683 17.6078634,17.4064976 17.0084195,17.631278 C16.8585366,17.7061463 16.7086537,17.7061463 16.5588878,17.7061463 C16.0343415,17.7061463 15.5847805,17.3314829 15.4348976,16.8819512 L14.9104683,15.3084293 L11.7635707,16.3574049 L12.288,17.9309268 C12.5127805,18.605239 12.1381171,19.2796683 11.5386732,19.5044488 C11.3889073,19.5793171 11.2390244,19.5793171 11.0891415,19.5793171 C10.5647122,19.5793171 10.1151805,19.2046537 9.96526829,18.755122 L9.44075122,17.1816 L7.86734634,17.7061463 C7.71746341,17.7810439 7.56758049,17.7810439 7.41778537,17.7810439 C6.89326829,17.7810439 6.44370732,17.4064976 6.29382439,16.9568488 C6.0690439,16.2825366 6.44370732,15.6081951 7.04315122,15.3834439 L8.61652683,14.8588976 L7.56758049,11.7869854 L5.99417561,12.3114146 C5.84429268,12.3862829 5.69440976,12.3862829 5.54461463,12.3862829 C5.02009756,12.3862829 4.57053659,12.0117659 4.42065366,11.5620878 C4.19587317,10.8877756 4.57053659,10.2134634 5.16998049,9.98868293 L6.7433561,9.46416585 L6.21892683,7.89076098 C5.99417561,7.21644878 6.36883902,6.54201951 6.96813659,6.31723902 C7.64256585,6.09245854 8.31687805,6.46712195 8.54165854,7.06656585 L9.06620488,8.63994146 L12.2131024,7.59099512 L11.6885561,6.01759024 C11.4638049,5.34327805 11.838439,4.66884878 12.4378829,4.44406829 C13.1121951,4.2192878 13.7865073,4.59395122 14.0112878,5.19339512 L14.6857171,6.76677073 L16.259122,6.24234146 C16.9334341,6.01759024 17.6078634,6.39225366 17.8326146,6.99155122 C18.0573951,7.66598049 17.6827317,8.34029268 17.0833171,8.56507317 L15.5099122,9.08961951 L16.5588878,12.1615317 L18.1322927,11.6371024 C18.8066049,11.412322 19.4810341,11.7869854 19.7057854,12.3862829 C19.7806829,13.0607122 19.4810341,13.809922 18.8066049,13.9598049 Z" id="Fill-1"></path>
                </g>
                <polygon id="Fill-4" points="9.91656585 10.9881659 13.1136878 9.91677073 14.1371707 12.9722341 10.9393756 14.0422537"></polygon>
            </g>
        </g>
    </g>
</svg>