<?xml version="1.0" encoding="UTF-8"?>
<svg width="24px" height="24px" viewBox="0 0 24 24" version="1.1" xmlns="http://www.w3.org/2000/svg" xmlns:xlink="http://www.w3.org/1999/xlink">
    <!-- Generator: Sketch 47.1 (45422) - http://www.bohemiancoding.com/sketch -->
    <title>telegram</title>
    <desc>Created with Sketch.</desc>
    <defs></defs>
    <g id="Page-1" stroke="none" stroke-width="1" fill="none" fill-rule="evenodd">
        <g id="繁体中文" transform="translate(-1095.000000, -3607.000000)" fill="#044A84">
            <path d="M1111.0007,3624.33007 L1112.96208,3615.00455 C1113.04211,3614.6098 1112.9955,3614.32717 1112.82195,3614.15676 C1112.64854,3613.98624 1112.41948,3613.95483 1112.13478,3614.06257 L1100.60661,3618.54366 C1100.34859,3618.64233 1100.17288,3618.75454 1100.07951,3618.88012 C1099.98614,3619.00567 1099.97496,3619.12456 1100.04621,3619.23669 C1100.11737,3619.34881 1100.25966,3619.4363 1100.47308,3619.49909 L1103.42196,3620.42762 L1110.26678,3616.08108 C1110.45366,3615.95551 1110.59595,3615.9286 1110.69376,3616.00037 C1110.75602,3616.0452 1110.73824,3616.11246 1110.64041,3616.20216 L1105.10308,3621.24852 L1104.88966,3624.31661 C1105.09421,3624.31661 1105.2944,3624.21797 1105.49005,3624.02065 L1106.93107,3622.62114 L1109.91997,3624.84141 C1110.48924,3625.16442 1110.84951,3624.99401 1111.0007,3624.33007 Z M1119,3619.00007 C1119,3620.625 1118.68312,3622.17855 1118.04911,3623.66077 C1117.41521,3625.1429 1116.56253,3626.4196 1115.49114,3627.49114 C1114.4196,3628.56253 1113.1429,3629.41521 1111.6608,3630.04911 C1110.17855,3630.68312 1108.625,3631 1107.00007,3631 C1105.375,3631 1103.82145,3630.68312 1102.33934,3630.04911 C1100.8571,3629.41521 1099.5804,3628.56253 1098.50889,3627.49114 C1097.43747,3626.4196 1096.58479,3625.1429 1095.95089,3623.66077 C1095.31699,3622.17855 1095,3620.625 1095,3619.00007 C1095,3617.375 1095.31699,3615.82145 1095.95089,3614.33934 C1096.58479,3612.8571 1097.43747,3611.5804 1098.50889,3610.50889 C1099.5804,3609.43747 1100.8571,3608.58479 1102.33934,3607.95089 C1103.82145,3607.31699 1105.375,3607 1107.00007,3607 C1108.625,3607 1110.17855,3607.31699 1111.6608,3607.95089 C1113.1429,3608.58479 1114.4196,3609.43747 1115.49114,3610.50889 C1116.56253,3611.5804 1117.41521,3612.8571 1118.04911,3614.33934 C1118.68312,3615.82145 1119,3617.375 1119,3619.00007 Z" id="telegram"></path>
        </g>
    </g>
</svg>