<?xml version="1.0" encoding="UTF-8"?>
<svg width="24px" height="24px" viewBox="0 0 24 24" version="1.1" xmlns="http://www.w3.org/2000/svg" xmlns:xlink="http://www.w3.org/1999/xlink">
    <!-- Generator: Sketch 47.1 (45422) - http://www.bohemiancoding.com/sketch -->
    <title>twitter</title>
    <desc>Created with Sketch.</desc>
    <defs></defs>
    <g id="Page-1" stroke="none" stroke-width="1" fill="none" fill-rule="evenodd">
        <g id="繁体中文" transform="translate(-1097.000000, -3563.000000)" fill="#044A84">
            <path d="M1109.00007,3563 C1102.37218,3563 1097,3568.37221 1097,3575.00008 C1097,3581.62793 1102.37218,3587 1109.00007,3587 C1115.62795,3587 1121,3581.62793 1121,3575.00008 C1121,3568.37221 1115.62795,3563 1109.00007,3563 Z M1115.21225,3572.76592 C1115.14424,3577.88506 1111.85378,3581.39149 1106.94242,3581.612 C1104.91687,3581.70401 1103.44962,3581.05295 1102.17241,3580.2459 C1103.66938,3580.4836 1105.52574,3579.88832 1106.51845,3579.04282 C1105.0512,3578.90059 1104.18239,3578.15761 1103.77587,3576.96155 C1104.19981,3577.03441 1104.64641,3577.01532 1105.04946,3576.93032 C1103.7253,3576.48943 1102.77955,3575.67519 1102.73068,3573.96887 C1103.10232,3574.1372 1103.48969,3574.29519 1104.00441,3574.32645 C1103.01341,3573.76571 1102.28064,3571.7157 1103.11976,3570.35995 C1104.59063,3571.96388 1106.35965,3573.27278 1109.26464,3573.44983 C1108.53534,3570.34774 1112.6668,3568.6658 1114.39576,3570.75049 C1115.12679,3570.60999 1115.72179,3570.33398 1116.29403,3570.03362 C1116.05843,3570.75395 1115.60481,3571.25746 1115.05172,3571.66007 C1115.65899,3571.57849 1116.19634,3571.43094 1116.65517,3571.20528 C1116.37084,3571.79385 1115.7479,3572.32147 1115.21225,3572.76592 Z" id="twitter"></path>
        </g>
    </g>
</svg>