<?xml version="1.0" encoding="UTF-8"?>
<svg width="24px" height="24px" viewBox="0 0 24 24" version="1.1" xmlns="http://www.w3.org/2000/svg" xmlns:xlink="http://www.w3.org/1999/xlink">
    <!-- Generator: Sketch 47.1 (45422) - http://www.bohemiancoding.com/sketch -->
    <title>Shape Copy 3</title>
    <desc>Created with Sketch.</desc>
    <defs></defs>
    <g id="Page-1" stroke="none" stroke-width="1" fill="none" fill-rule="evenodd">
        <g id="繁体中文" transform="translate(-1046.000000, -3563.000000)" fill="#044A84">
            <path d="M1054.37613,3577.06104 C1053.77362,3577.12397 1053.34211,3577.64947 1053.34211,3578.15186 C1053.34211,3578.65546 1053.82721,3579.00333 1054.43003,3578.93286 C1055.03038,3578.86432 1055.51764,3578.39988 1055.51764,3577.89813 C1055.51764,3577.3939 1055.06776,3576.99497 1054.37613,3577.06104 L1054.37613,3577.06104 Z M1055.9052,3576.64589 C1055.69868,3576.7955 1055.6563,3577.08223 1055.76873,3577.2605 C1055.87656,3577.44248 1056.12762,3577.46368 1056.33143,3577.31163 C1056.53081,3577.15454 1056.60841,3576.88027 1056.50026,3576.69702 C1056.39247,3576.51876 1056.14447,3576.46699 1055.9052,3576.64589 L1055.9052,3576.64589 Z M1058.00127,3563 C1051.37912,3563 1046,3568.37431 1046,3575.00339 C1046,3581.63004 1051.37912,3587 1058.00127,3587 C1064.62841,3587 1070,3581.63001 1070,3575.00339 C1070.00002,3568.37433 1064.62841,3563 1058.00127,3563 L1058.00127,3563 Z M1064.55989,3578.01285 C1063.23736,3580.82344 1058.8761,3582.19101 1055.64475,3581.93794 C1052.57296,3581.69608 1048.62382,3580.67572 1048.21565,3576.95758 C1048.21565,3576.95758 1048.00013,3575.27334 1049.63197,3573.09414 C1049.63197,3573.09414 1051.97912,3569.81424 1054.71384,3568.87857 C1057.45013,3567.94673 1057.76883,3569.52375 1057.76883,3570.455 C1057.62367,3571.2454 1057.35168,3571.70974 1058.37886,3571.3906 C1058.37886,3571.3906 1061.06838,3570.14268 1062.17533,3571.24972 C1063.06822,3572.14422 1062.32266,3573.37281 1062.32266,3573.37281 C1062.32266,3573.37281 1061.95221,3573.78354 1062.7143,3573.93189 C1063.47879,3574.08401 1065.88266,3575.19787 1064.55989,3578.01285 L1064.55989,3578.01285 Z M1061.90767,3570.24808 C1061.61482,3570.24808 1061.38026,3570.0112 1061.38026,3569.72074 C1061.38026,3569.42527 1061.61482,3569.18841 1061.90767,3569.18841 C1061.90767,3569.18841 1065.20475,3568.57815 1064.81095,3572.12307 C1064.81095,3572.14427 1064.80847,3572.16041 1064.80413,3572.17911 C1064.76641,3572.42971 1064.54618,3572.62232 1064.28572,3572.62232 C1063.99222,3572.62232 1063.75361,3572.38731 1063.75361,3572.09432 C1063.75361,3572.09432 1064.27633,3569.72571 1061.90767,3570.24808 L1061.90767,3570.24808 Z M1067.47712,3572.72017 C1067.39055,3573.99674 1067.09206,3573.54981 1066.73814,3573.54981 C1066.31418,3573.54981 1065.97178,3573.33597 1065.97178,3572.91153 C1065.97178,3572.54317 1066.12377,3572.23461 1066.12377,3572.23461 C1066.16862,3572.07939 1066.52752,3571.14998 1065.88701,3569.71197 C1064.71498,3567.74163 1062.35353,3567.7292 1062.07439,3567.84199 C1061.7927,3567.95171 1061.37779,3568.01656 1061.37779,3568.01656 C1060.95093,3568.01656 1060.60888,3567.67559 1060.60888,3567.25355 C1060.60888,3566.89956 1060.84567,3566.60594 1061.16901,3566.51428 C1061.16901,3566.51428 1061.17648,3566.51307 1061.18804,3566.51059 C1061.21139,3566.50561 1061.23505,3566.50185 1061.26097,3566.49935 C1061.58899,3566.43578 1062.76099,3565.98701 1063.90125,3566.25373 C1065.94125,3566.72996 1068.74143,3568.89044 1067.48154,3572.72015 L1067.47712,3572.72015 L1067.47712,3572.72017 Z M1055.88401,3573.27739 C1052.67575,3573.4245 1050.08275,3575.14368 1050.08275,3577.28794 C1050.08275,3579.42964 1052.67575,3581.0391 1055.88401,3580.88948 C1059.09417,3580.74363 1061.69241,3578.73277 1061.69241,3576.59165 C1061.69241,3574.45178 1059.09417,3573.12906 1055.88401,3573.27739 L1055.88401,3573.27739 Z M1058.06916,3578.66983 C1057.08689,3579.93895 1055.14285,3580.55788 1053.25522,3579.5356 C1052.35736,3579.04757 1052.38971,3578.09077 1052.38971,3578.09077 C1052.38971,3578.09077 1052.01715,3575.06637 1055.24348,3574.68927 C1058.47483,3574.31341 1059.05175,3577.40074 1058.06916,3578.66983 L1058.06916,3578.66983 Z" id="Shape-Copy-3"></path>
        </g>
    </g>
</svg>