<?xml version="1.0" encoding="UTF-8"?>
<svg width="24px" height="24px" viewBox="0 0 24 24" version="1.1" xmlns="http://www.w3.org/2000/svg" xmlns:xlink="http://www.w3.org/1999/xlink">
    <!-- Generator: Sketch 47.1 (45422) - http://www.bohemiancoding.com/sketch -->
    <title>Shape Copy 4</title>
    <desc>Created with Sketch.</desc>
    <defs></defs>
    <g id="Page-1" stroke="none" stroke-width="1" fill="none" fill-rule="evenodd">
        <g id="繁体中文" transform="translate(-997.000000, -3563.000000)" fill="#044A84">
            <path d="M1010.96907,3575.00002 C1010.62756,3575.00002 1010.28411,3575.34344 1010.28411,3575.68428 C1010.28411,3576.03095 1010.62756,3576.36983 1010.96907,3576.36983 C1011.48685,3576.36983 1011.82581,3576.03095 1011.82581,3575.68428 C1011.82581,3575.34342 1011.48688,3575.00002 1010.96907,3575.00002 L1010.96907,3575.00002 Z M1014.73553,3575.00002 C1014.39657,3575.00002 1014.05503,3575.34344 1014.05503,3575.68428 C1014.05503,3576.03095 1014.39657,3576.36983 1014.73553,3576.36983 C1015.24878,3576.36983 1015.5922,3576.03095 1015.5922,3575.68428 C1015.5922,3575.34342 1015.24878,3575.00002 1014.73553,3575.00002 L1014.73553,3575.00002 Z M1003.9495,3570.03383 C1003.4369,3570.03383 1002.91849,3570.37211 1002.91849,3570.8879 C1002.91849,3571.40108 1003.4369,3571.74452 1003.9495,3571.74452 C1004.46275,3571.74452 1004.80362,3571.40108 1004.80362,3570.8879 C1004.80364,3570.37211 1004.46275,3570.03383 1003.9495,3570.03383 L1003.9495,3570.03383 Z M1008.74241,3571.74452 C1009.25761,3571.74452 1009.59913,3571.40108 1009.59913,3570.8879 C1009.59913,3570.37211 1009.25761,3570.03383 1008.74241,3570.03383 C1008.22916,3570.03383 1007.71333,3570.37211 1007.71333,3570.8879 C1007.71333,3571.40108 1008.22916,3571.74452 1008.74241,3571.74452 L1008.74241,3571.74452 Z M1009.00099,3563 C1002.37628,3563 997,3568.37327 997,3575 C997,3581.62673 1002.37628,3587 1009.00099,3587 C1015.62627,3587 1021,3581.6267 1021,3575 C1021,3568.37327 1015.6263,3563 1009.00099,3563 L1009.00099,3563 Z M1006.17423,3578.77066 C1005.31944,3578.77066 1004.63256,3578.59636 1003.77584,3578.42722 L1001.38193,3579.62791 L1002.06626,3577.56734 C1000.35287,3576.36983 999.326347,3574.8251 999.326347,3572.94524 C999.326347,3569.68718 1002.4097,3567.12176 1006.17421,3567.12176 C1009.54058,3567.12176 1012.49017,3569.17074 1013.08316,3571.92976 C1012.86578,3571.90533 1012.64583,3571.88988 1012.42393,3571.88988 C1009.17075,3571.88988 1006.60257,3574.31702 1006.60257,3577.30879 C1006.60257,3577.80595 1006.67975,3578.28574 1006.81353,3578.74363 C1006.60194,3578.7603 1006.38905,3578.77066 1006.17423,3578.77066 L1006.17423,3578.77066 Z M1016.27463,3581.16882 L1016.79043,3582.88084 L1014.9124,3581.85182 C1014.22739,3582.02351 1013.53925,3582.19528 1012.85745,3582.19528 C1009.59913,3582.19528 1007.03353,3579.96875 1007.03353,3577.22651 C1007.03353,3574.48872 1009.59913,3572.25773 1012.85745,3572.25773 C1015.93314,3572.25773 1018.67368,3574.48872 1018.67368,3577.22651 C1018.67365,3578.77066 1017.64973,3580.13857 1016.27463,3581.16882 L1016.27463,3581.16882 Z" id="Shape-Copy-4"></path>
        </g>
    </g>
</svg>